<svg id="ePqDhvtlYF41" xmlns="http://www.w3.org/2000/svg" xmlns:xlink="http://www.w3.org/1999/xlink" viewBox="0 -5 92.400000 145" shape-rendering="geometricPrecision" text-rendering="geometricPrecision"><style><![CDATA[#ePqDhvtlYF42_to {animation: ePqDhvtlYF42_to__to 10000ms linear infinite normal forwards}@keyframes ePqDhvtlYF42_to__to { 0% {transform: translate(46.200001px,68.245003px);animation-timing-function: step-start} 3% {transform: translate(46.200001px,62.985755px);animation-timing-function: step-start} 6% {transform: translate(46.200001px,68.245003px);animation-timing-function: step-start} 8% {transform: translate(46.200001px,62.985755px);animation-timing-function: step-start} 11% {transform: translate(46.200001px,68.245003px)} 100% {transform: translate(46.200001px,68.245003px)}} #ePqDhvtlYF42 {animation: ePqDhvtlYF42_c_o 10000ms linear infinite normal forwards}@keyframes ePqDhvtlYF42_c_o { 0% {opacity: 0;animation-timing-function: cubic-bezier(0.420000,0,1,1)} 2% {opacity: 1} 16% {opacity: 1;animation-timing-function: cubic-bezier(0.420000,0,0.580000,1)} 23% {opacity: 0} 100% {opacity: 0}} #ePqDhvtlYF43 {animation: ePqDhvtlYF43_c_o 10000ms linear infinite normal forwards}@keyframes ePqDhvtlYF43_c_o { 0% {opacity: 0;animation-timing-function: step-end} 3% {opacity: 1;animation-timing-function: step-end} 6% {opacity: 0} 100% {opacity: 0}} #ePqDhvtlYF44 {animation: ePqDhvtlYF44_c_o 10000ms linear infinite normal forwards}@keyframes ePqDhvtlYF44_c_o { 0% {opacity: 0} 5% {opacity: 0;animation-timing-function: step-end} 8% {opacity: 1;animation-timing-function: step-end} 11% {opacity: 0} 100% {opacity: 0}} #ePqDhvtlYF45 {animation: ePqDhvtlYF45_c_o 10000ms linear infinite normal forwards}@keyframes ePqDhvtlYF45_c_o { 0% {opacity: 0} 3% {opacity: 0;animation-timing-function: step-end} 6% {opacity: 1;animation-timing-function: step-end} 9% {opacity: 0} 100% {opacity: 0}}]]></style><g id="ePqDhvtlYF42_to" transform="translate(46.200001,68.245003)"><polygon id="ePqDhvtlYF42" points="92.400000,90.410000 81.090000,79.090000 54.410000,105.770000 54.410000,0 38.410000,14 38.410000,106.080000 22.410000,90 0,90.410000 46.090000,136.490000 46.200000,136.380000 46.310000,136.490000 92.400000,90.410000" transform="translate(-46.200001,-68.245003)" opacity="0" fill="rgb(37,41,48)" stroke="none" stroke-width="1"/></g><path id="ePqDhvtlYF43" d="M20.972973,51.061682L29.476078,59.734752L37.979182,51.061682L35.746889,48.884091L30.680031,54.555744L30.680031,35.723076L28.261731,38.095602L28.261731,54.555744L24.983978,51.061682L20.972973,51.061682Z" transform="matrix(0.56204154643629 0 0 0.60968839248257 13.77432481902398 7.03838390840130)" opacity="0" fill="rgb(37,41,48)" stroke="none" stroke-width="0.272980"/><path id="ePqDhvtlYF44" d="M20.972973,51.061682L29.476078,59.734752L37.979182,51.061682L35.746889,48.884091L30.680031,54.555744L30.680031,35.723076L28.261731,38.095602L28.261731,54.555744L24.983978,51.061682L20.972973,51.061682Z" transform="matrix(0.87064394022391 0 0 0.94445243008378 43.32297174305480 9.71922288744042)" opacity="0" fill="rgb(37,41,48)" stroke="none" stroke-width="0.272980"/><path id="ePqDhvtlYF45" d="M20.972973,51.061682L29.476078,59.734752L37.979182,51.061682L35.746889,48.884091L30.680031,54.555744L30.680031,35.723076L28.261731,38.095602L28.261731,54.555744L24.983978,51.061682L20.972973,51.061682Z" transform="matrix(0.53080568184952 0 0 0.57580452003850 -3.85230282563687 31.74031436227124)" opacity="0" fill="rgb(37,41,48)" stroke="none" stroke-width="0.272980"/></svg>